<svg width="150" height="19" viewBox="0 0 150 19" fill="none" xmlns="http://www.w3.org/2000/svg">
<path d="M4.87253 1.632H9.76853H9.81653C9.88053 1.664 9.91253 1.688 9.91253 1.704C9.94453 1.768 10.7845 3.752 12.4325 7.656C14.0965 11.624 14.9285 13.568 14.9285 13.488L17.3765 3.672C17.3765 3.432 17.2485 3.264 16.9925 3.168C16.7045 3.024 16.2485 2.952 15.6245 2.952H15.3605L15.2645 2.88C15.2165 2.816 15.1925 2.76 15.1925 2.712L15.4565 1.728C15.5045 1.648 15.7205 1.616 16.1045 1.632C16.1525 1.632 16.2245 1.632 16.3205 1.632C17.4085 1.696 18.7605 1.704 20.3765 1.656C20.5365 1.64 20.6645 1.632 20.7605 1.632C21.2245 1.616 21.4885 1.664 21.5525 1.776C21.5845 1.824 21.5605 2.008 21.4805 2.328C21.4005 2.648 21.3365 2.832 21.2885 2.88L21.2165 2.952H20.9525C19.7845 2.952 19.0325 3.208 18.6965 3.72C18.6325 3.896 18.0405 6.256 16.9205 10.8C15.7365 15.536 15.1445 17.88 15.1445 17.832C15.0165 17.944 14.8085 18 14.5205 18H14.0645L13.9925 17.928C13.9285 17.864 12.9205 15.504 10.9685 10.848C8.98453 6.16 7.99253 3.84 7.99253 3.888C7.97653 3.904 7.47253 5.904 6.48053 9.888C5.48853 13.888 4.99253 15.912 4.99253 15.96C4.99253 16.376 5.51253 16.608 6.55253 16.656C6.88853 16.656 7.08853 16.712 7.15253 16.824C7.16853 16.872 7.14453 17.056 7.08053 17.376C7.00053 17.68 6.92853 17.864 6.86453 17.928L6.79253 18H6.48053C5.00853 17.92 3.36853 17.912 1.56053 17.976C1.11253 17.992 0.856531 17.944 0.792531 17.832C0.776531 17.784 0.800531 17.6 0.864531 17.28C0.944531 16.976 1.01653 16.792 1.08053 16.728L1.15253 16.656H1.41653C2.37653 16.656 3.04853 16.488 3.43253 16.152C3.54453 16.04 3.63253 15.88 3.69653 15.672C3.80853 15.336 4.34453 13.248 5.30453 9.408L6.91253 3H6.84053L5.73653 2.952H4.70453L4.60853 2.856C4.56053 2.808 4.53653 2.76 4.53653 2.712L4.80053 1.728C4.80053 1.712 4.82453 1.68 4.87253 1.632ZM40.0983 0.839999L40.6503 0.816H40.6743C41.1063 0.816 41.3383 0.863999 41.3703 0.959999C41.3863 1.024 41.6023 3.616 42.0183 8.736C42.4183 13.888 42.6343 16.48 42.6663 16.512C42.6823 16.528 42.7383 16.552 42.8343 16.584C43.0263 16.632 43.4903 16.656 44.2263 16.656H44.7063L44.8023 16.728C44.8503 16.808 44.8743 16.864 44.8743 16.896L44.6583 17.856C44.6103 17.952 44.4343 17.992 44.1303 17.976C44.0663 17.976 43.9463 17.976 43.7703 17.976C41.4503 17.912 39.5543 17.92 38.0823 18H37.7943L37.7223 17.928C37.6583 17.864 37.6263 17.8 37.6263 17.736C37.6263 17.48 37.7063 17.168 37.8663 16.8C37.8983 16.704 38.1303 16.656 38.5623 16.656C38.9463 16.624 39.2023 16.608 39.3303 16.608C39.6983 16.544 39.8983 16.48 39.9303 16.416C39.9463 16.4 39.9143 15.872 39.8343 14.832C39.7543 13.904 39.7143 13.376 39.7143 13.248C39.7143 13.216 38.8023 13.2 36.9783 13.2H34.2183L33.4983 14.472C32.9863 15.336 32.7223 15.808 32.7063 15.888C32.6423 16.048 32.6663 16.184 32.7783 16.296C32.9383 16.488 33.2823 16.608 33.8103 16.656C34.0343 16.656 34.1783 16.712 34.2423 16.824L34.2663 16.896L34.1463 17.376C34.0823 17.68 34.0183 17.864 33.9543 17.928L33.8823 18H33.5943C32.2663 17.936 31.0103 17.92 29.8263 17.952C29.0103 17.984 28.5943 18 28.5783 18H28.4103L28.3383 17.928C28.2743 17.864 28.2423 17.808 28.2423 17.76L28.4583 16.8C28.5223 16.704 28.7063 16.656 29.0103 16.656C30.1303 16.608 30.9063 16.288 31.3383 15.696L35.6823 8.256C38.4663 3.44 39.8903 1 39.9543 0.935999C39.9703 0.92 40.0183 0.888 40.0983 0.839999ZM39.3303 8.4C39.1543 6.112 39.0663 4.952 39.0663 4.92C39.0663 4.856 38.7143 5.44 38.0103 6.672L35.9943 10.152L35.0103 11.832L37.2903 11.856H39.5943C39.5943 11.872 39.5063 10.72 39.3303 8.4ZM54.8825 1.656L54.9545 1.608H55.2905C56.7945 1.688 58.6345 1.696 60.8105 1.632C61.3385 1.616 61.6345 1.664 61.6985 1.776C61.7305 1.824 61.7065 2.008 61.6265 2.328C61.5305 2.68 61.4505 2.872 61.3865 2.904C61.3385 2.92 61.1545 2.936 60.8345 2.952C60.4505 2.984 60.1945 3 60.0665 3C59.7305 3.064 59.5305 3.12 59.4665 3.168C59.4505 3.184 59.6505 5.096 60.0665 8.904C60.4825 12.728 60.6985 14.664 60.7145 14.712C60.7145 14.728 60.7385 14.704 60.7865 14.64C60.9305 14.432 62.0185 12.672 64.0505 9.36C66.3065 5.616 67.4265 3.768 67.4105 3.816C67.4745 3.656 67.4985 3.528 67.4825 3.432C67.4025 3.16 67.0505 3 66.4265 2.952C66.1865 2.952 66.0345 2.896 65.9705 2.784C65.9545 2.736 65.9785 2.552 66.0425 2.232C66.1225 1.928 66.1945 1.744 66.2585 1.68L66.3305 1.608H66.6185C67.9465 1.672 69.1865 1.688 70.3385 1.656L71.5145 1.608H71.6825L71.7545 1.68C71.8185 1.744 71.8505 1.808 71.8505 1.872C71.8505 2.128 71.7705 2.44 71.6105 2.808C71.5785 2.904 71.4025 2.952 71.0825 2.952C70.2825 3 69.6585 3.184 69.2105 3.504C69.0825 3.616 68.9305 3.784 68.7545 4.008C68.6425 4.168 67.1705 6.568 64.3385 11.208C61.4425 15.944 59.9865 18.32 59.9705 18.336C59.9705 18.352 59.9065 18.4 59.7785 18.48C59.6985 18.512 59.4825 18.528 59.1305 18.528C58.7945 18.528 58.5865 18.504 58.5065 18.456C58.4585 18.408 58.4345 18.368 58.4345 18.336C58.4345 18.24 58.1465 15.704 57.5705 10.728C57.0265 5.672 56.7385 3.128 56.7065 3.096C56.6905 3.08 56.6345 3.056 56.5385 3.024C56.3465 2.976 55.9145 2.952 55.2425 2.952C54.8585 2.952 54.6505 2.904 54.6185 2.808C54.5865 2.76 54.6025 2.576 54.6665 2.256C54.7465 1.92 54.8185 1.72 54.8825 1.656ZM80.0589 1.728L80.1309 1.68H86.8509H93.5469L93.6429 1.752C93.6909 1.816 93.7149 1.88 93.7149 1.944L93.0189 7.416C93.0189 7.496 92.9869 7.56 92.9229 7.608L92.8509 7.68H92.4429C92.1549 7.68 91.9869 7.664 91.9389 7.632C91.8589 7.584 91.8349 7.392 91.8669 7.056C91.8669 7.024 91.8669 6.984 91.8669 6.936C91.9469 6.28 91.9869 5.736 91.9869 5.304C91.9389 4.344 91.6189 3.712 91.0269 3.408C90.7389 3.28 90.4429 3.192 90.1389 3.144C89.6909 3.064 88.6989 3.032 87.1629 3.048C85.6269 3.048 84.8189 3.096 84.7389 3.192L83.2989 8.856H84.5709C85.6269 8.84 86.3069 8.776 86.6109 8.664C86.9629 8.552 87.2509 8.352 87.4749 8.064C87.6989 7.776 87.9069 7.256 88.0989 6.504C88.1629 6.296 88.2189 6.168 88.2669 6.12L88.3389 6.048H88.7469C89.0829 6.048 89.2829 6.104 89.3469 6.216C89.3629 6.28 89.1069 7.392 88.5789 9.552C88.0189 11.744 87.7309 12.848 87.7149 12.864C87.6829 12.96 87.4909 13.008 87.1389 13.008H86.7309L86.6349 12.936C86.5709 12.856 86.5709 12.672 86.6349 12.384C86.8269 11.568 86.8509 11.008 86.7069 10.704C86.5949 10.464 86.2749 10.312 85.7469 10.248C85.6509 10.232 85.1549 10.224 84.2589 10.224L82.9629 10.2L82.1709 13.344C81.6429 15.472 81.3789 16.544 81.3789 16.56C81.3789 16.576 81.3949 16.6 81.4269 16.632H85.7709C86.7149 16.584 87.5229 16.408 88.1949 16.104C88.5949 15.896 88.9549 15.648 89.2749 15.36C89.8989 14.736 90.5629 13.576 91.2669 11.88C91.3949 11.544 91.4909 11.344 91.5549 11.28L91.6269 11.208H92.0589H92.4909L92.5629 11.28C92.6269 11.344 92.6269 11.472 92.5629 11.664C92.4829 11.904 92.0829 12.912 91.3629 14.688C90.4829 16.8 90.0429 17.864 90.0429 17.88C90.0109 17.944 89.7789 17.976 89.3469 17.976C88.8349 17.992 86.7309 18 83.0349 18C78.4429 18 76.1149 17.952 76.0509 17.856C76.0189 17.808 76.0349 17.624 76.0989 17.304C76.1789 16.952 76.2589 16.752 76.3389 16.704C76.4189 16.672 76.7069 16.656 77.2029 16.656C78.0989 16.64 78.6029 16.576 78.7149 16.464C78.7629 16.432 79.3389 14.208 80.4429 9.792C81.5469 5.376 82.0829 3.16 82.0509 3.144C82.0189 3.112 81.9629 3.096 81.8829 3.096C81.6109 3.048 81.1469 3.024 80.4909 3.024C80.0749 3.024 79.8429 2.976 79.7949 2.88C79.7629 2.832 79.7789 2.648 79.8429 2.328C79.9229 1.992 79.9949 1.792 80.0589 1.728ZM105.77 1.728L105.842 1.68H112.562H119.258L119.354 1.752C119.402 1.816 119.426 1.88 119.426 1.944L118.73 7.416C118.73 7.496 118.698 7.56 118.634 7.608L118.562 7.68H118.154C117.866 7.68 117.698 7.664 117.65 7.632C117.57 7.584 117.546 7.392 117.578 7.056C117.578 7.024 117.578 6.984 117.578 6.936C117.658 6.28 117.698 5.736 117.698 5.304C117.65 4.344 117.33 3.712 116.738 3.408C116.45 3.28 116.154 3.192 115.85 3.144C115.402 3.064 114.41 3.032 112.874 3.048C111.338 3.048 110.53 3.096 110.45 3.192L109.01 8.856H110.282C111.338 8.84 112.018 8.776 112.322 8.664C112.674 8.552 112.962 8.352 113.186 8.064C113.41 7.776 113.618 7.256 113.81 6.504C113.874 6.296 113.93 6.168 113.978 6.12L114.05 6.048H114.458C114.794 6.048 114.994 6.104 115.058 6.216C115.074 6.28 114.818 7.392 114.29 9.552C113.73 11.744 113.442 12.848 113.426 12.864C113.394 12.96 113.202 13.008 112.85 13.008H112.442L112.346 12.936C112.282 12.856 112.282 12.672 112.346 12.384C112.538 11.568 112.562 11.008 112.418 10.704C112.306 10.464 111.986 10.312 111.458 10.248C111.362 10.232 110.866 10.224 109.97 10.224L108.674 10.2L107.882 13.344C107.354 15.472 107.09 16.544 107.09 16.56C107.09 16.576 107.106 16.6 107.138 16.632H111.482C112.426 16.584 113.234 16.408 113.906 16.104C114.306 15.896 114.666 15.648 114.986 15.36C115.61 14.736 116.274 13.576 116.978 11.88C117.106 11.544 117.202 11.344 117.266 11.28L117.338 11.208H117.77H118.202L118.274 11.28C118.338 11.344 118.338 11.472 118.274 11.664C118.194 11.904 117.794 12.912 117.074 14.688C116.194 16.8 115.754 17.864 115.754 17.88C115.722 17.944 115.49 17.976 115.058 17.976C114.546 17.992 112.442 18 108.746 18C104.154 18 101.826 17.952 101.762 17.856C101.73 17.808 101.746 17.624 101.81 17.304C101.89 16.952 101.97 16.752 102.05 16.704C102.13 16.672 102.418 16.656 102.914 16.656C103.81 16.64 104.314 16.576 104.426 16.464C104.474 16.432 105.05 14.208 106.154 9.792C107.258 5.376 107.794 3.16 107.762 3.144C107.73 3.112 107.674 3.096 107.594 3.096C107.322 3.048 106.858 3.024 106.202 3.024C105.786 3.024 105.554 2.976 105.506 2.88C105.474 2.832 105.49 2.648 105.554 2.328C105.634 1.992 105.706 1.792 105.77 1.728ZM131.529 1.632H136.425H136.473C136.537 1.664 136.569 1.688 136.569 1.704C136.601 1.768 137.441 3.752 139.089 7.656C140.753 11.624 141.585 13.568 141.585 13.488L144.033 3.672C144.033 3.432 143.905 3.264 143.649 3.168C143.361 3.024 142.905 2.952 142.281 2.952H142.017L141.921 2.88C141.873 2.816 141.849 2.76 141.849 2.712L142.113 1.728C142.161 1.648 142.377 1.616 142.761 1.632C142.809 1.632 142.881 1.632 142.977 1.632C144.065 1.696 145.417 1.704 147.033 1.656C147.193 1.64 147.321 1.632 147.417 1.632C147.881 1.616 148.145 1.664 148.209 1.776C148.241 1.824 148.217 2.008 148.137 2.328C148.057 2.648 147.993 2.832 147.945 2.88L147.873 2.952H147.609C146.441 2.952 145.689 3.208 145.353 3.72C145.289 3.896 144.697 6.256 143.577 10.8C142.393 15.536 141.801 17.88 141.801 17.832C141.673 17.944 141.465 18 141.177 18H140.721L140.649 17.928C140.585 17.864 139.577 15.504 137.625 10.848C135.641 6.16 134.649 3.84 134.649 3.888C134.633 3.904 134.129 5.904 133.137 9.888C132.145 13.888 131.649 15.912 131.649 15.96C131.649 16.376 132.169 16.608 133.209 16.656C133.545 16.656 133.745 16.712 133.809 16.824C133.825 16.872 133.801 17.056 133.737 17.376C133.657 17.68 133.585 17.864 133.521 17.928L133.449 18H133.137C131.665 17.92 130.025 17.912 128.217 17.976C127.769 17.992 127.513 17.944 127.449 17.832C127.433 17.784 127.457 17.6 127.521 17.28C127.601 16.976 127.673 16.792 127.737 16.728L127.809 16.656H128.073C129.033 16.656 129.705 16.488 130.089 16.152C130.201 16.04 130.289 15.88 130.353 15.672C130.465 15.336 131.001 13.248 131.961 9.408L133.569 3H133.497L132.393 2.952H131.361L131.265 2.856C131.217 2.808 131.193 2.76 131.193 2.712L131.457 1.728C131.457 1.712 131.481 1.68 131.529 1.632ZM147.698 18.168C147.266 18.168 146.914 18.032 146.642 17.76C146.37 17.488 146.234 17.144 146.234 16.728C146.234 16.168 146.442 15.688 146.858 15.288C147.29 14.872 147.778 14.664 148.322 14.664C148.754 14.664 149.098 14.8 149.354 15.072C149.626 15.344 149.762 15.688 149.762 16.104C149.762 16.664 149.554 17.152 149.138 17.568C148.722 17.968 148.242 18.168 147.698 18.168Z" fill="white"/>
</svg>
