<svg width="110" height="36" viewBox="0 0 110 36" fill="none" xmlns="http://www.w3.org/2000/svg">
<g clip-path="url(#clip0_1865_7923)">
<path d="M12.3013 5.37475C11.7655 5.06381 11.1776 4.77509 10.5376 4.50857C9.89758 4.24205 9.27247 4.02736 8.66225 3.86449C8.0669 3.70162 7.54598 3.62018 7.09947 3.62018C6.7125 3.62018 6.39994 3.69421 6.1618 3.84228C5.92367 3.99034 5.8046 4.21984 5.8046 4.53078C5.8046 4.87133 5.94599 5.15265 6.22878 5.37475C6.52645 5.58204 6.92087 5.75972 7.41202 5.90778C7.90318 6.05585 8.43899 6.21131 9.01945 6.37418C9.59991 6.52225 10.1804 6.71473 10.7608 6.95164C11.3413 7.17373 11.8697 7.46246 12.3459 7.81782C12.8371 8.15836 13.2315 8.60996 13.5292 9.17261C13.8268 9.72045 13.9757 10.4015 13.9757 11.2159C13.9757 12.3412 13.678 13.274 13.0827 14.0143C12.5022 14.7398 11.7208 15.2877 10.7385 15.6578C9.77107 16.0132 8.69945 16.1909 7.52365 16.1909C6.63064 16.1909 5.73018 16.0872 4.82228 15.8799C3.91438 15.6726 3.04369 15.3839 2.21021 15.0138C1.39162 14.6436 0.654878 14.192 0 13.659L1.74138 10.1498C2.27719 10.6088 2.89486 11.0234 3.59439 11.3936C4.3088 11.7489 5.01577 12.0377 5.7153 12.2598C6.42971 12.467 7.04738 12.5707 7.5683 12.5707C8.07434 12.5707 8.46876 12.4819 8.75155 12.3042C9.03434 12.1117 9.17573 11.8304 9.17573 11.4602C9.17573 11.1197 9.02689 10.8457 8.72922 10.6384C8.43155 10.4164 8.03714 10.2313 7.54598 10.0832C7.0697 9.93514 6.53389 9.78708 5.93855 9.63901C5.35809 9.49095 4.77763 9.31327 4.19717 9.10598C3.63159 8.88388 3.10323 8.60256 2.61207 8.26201C2.12091 7.92146 1.7265 7.48467 1.42882 6.95164C1.14604 6.4186 1.00464 5.75231 1.00464 4.95276C1.00464 3.94592 1.27255 3.07234 1.80836 2.33202C2.34416 1.57689 3.09579 0.999436 4.06322 0.599661C5.03065 0.199887 6.16925 0 7.479 0C8.66969 0 9.84549 0.170274 11.0064 0.510823C12.1673 0.836565 13.172 1.27336 14.0203 1.82119L12.3013 5.37475Z" fill="#1C3FC9"/>
<path d="M22.778 0.355347C24.8022 0.355347 26.3649 0.836557 27.4663 1.79898C28.5826 2.7614 29.1407 4.11619 29.1407 5.86335C29.1407 7.72897 28.5826 9.18 27.4663 10.2165C26.3649 11.2381 24.8022 11.7489 22.778 11.7489H18.2906L20.3222 9.72784V15.9244H15.6785V0.355347H22.778ZM22.5547 8.17316C23.2543 8.17316 23.7901 7.98808 24.1622 7.61792C24.5491 7.24776 24.7426 6.70732 24.7426 5.99661C24.7426 5.33032 24.5491 4.8195 24.1622 4.46414C23.7901 4.09398 23.2543 3.9089 22.5547 3.9089H18.2906L20.3222 1.91002V10.1943L18.2906 8.17316H22.5547Z" fill="#1C3FC9"/>
<path d="M38.5534 0.0666504C39.7887 0.0666504 40.9199 0.266538 41.9468 0.666312C42.9887 1.06609 43.8891 1.62873 44.6482 2.35425C45.4222 3.07977 46.0175 3.93114 46.4342 4.90836C46.8659 5.88559 47.0817 6.95166 47.0817 8.10656C47.0817 9.26147 46.8659 10.3423 46.4342 11.3492C46.0175 12.3412 45.4222 13.2 44.6482 13.9255C43.8891 14.651 42.9887 15.221 41.9468 15.6356C40.9199 16.0354 39.7887 16.2353 38.5534 16.2353C37.318 16.2353 36.1795 16.0354 35.1376 15.6356C34.1106 15.221 33.2102 14.651 32.4362 13.9255C31.6772 13.2 31.0818 12.3412 30.6502 11.3492C30.2335 10.3571 30.0251 9.27627 30.0251 8.10656C30.0251 6.93685 30.2335 5.86338 30.6502 4.88615C31.0818 3.90893 31.6772 3.06496 32.4362 2.35425C33.2102 1.62873 34.1106 1.06609 35.1376 0.666312C36.1795 0.266538 37.318 0.0666504 38.5534 0.0666504ZM38.6204 3.90893C38.0994 3.90893 37.6008 4.01257 37.1246 4.21986C36.6632 4.42715 36.2539 4.72328 35.8967 5.10825C35.5543 5.49322 35.279 5.94482 35.0706 6.46304C34.8771 6.96646 34.7804 7.52171 34.7804 8.12877C34.7804 8.73584 34.8846 9.29848 35.0929 9.81671C35.3013 10.3349 35.5767 10.7865 35.919 11.1715C36.2762 11.5564 36.6855 11.86 37.1469 12.0821C37.6083 12.2894 38.0994 12.393 38.6204 12.393C39.1264 12.393 39.6027 12.2894 40.0492 12.0821C40.4957 11.86 40.8901 11.5564 41.2324 11.1715C41.5747 10.7865 41.8427 10.3349 42.0361 9.81671C42.2296 9.29848 42.3264 8.73584 42.3264 8.12877C42.3264 7.52171 42.2296 6.96646 42.0361 6.46304C41.8427 5.94482 41.5747 5.49322 41.2324 5.10825C40.8901 4.72328 40.4957 4.42715 40.0492 4.21986C39.6027 4.01257 39.1264 3.90893 38.6204 3.90893Z" fill="#1C3FC9"/>
<path d="M56.118 0.355347C58.2315 0.355347 59.8613 0.836557 61.0073 1.79898C62.1533 2.7614 62.7264 4.11619 62.7264 5.86335C62.7264 7.72897 62.1533 9.18 61.0073 10.2165C59.8613 11.2381 58.2315 11.7489 56.118 11.7489H53.4613V15.9244H48.8176V0.355347H56.118ZM56.118 8.17316C56.8176 8.17316 57.3534 7.98808 57.7255 7.61792C58.1124 7.24776 58.3059 6.70732 58.3059 5.99661C58.3059 5.33032 58.1124 4.8195 57.7255 4.46414C57.3534 4.09398 56.8176 3.9089 56.118 3.9089H53.4613V8.17316H56.118ZM55.0911 10.061H59.6008L63.2622 15.9244H57.9934L55.0911 10.061Z" fill="#1C3FC9"/>
<path d="M63.8118 0.355347H77.5642V4.04216H73.0098V15.9244H68.3438V4.04216H63.8118V0.355347Z" fill="#1C3FC9"/>
<path d="M4.66787 28.9547C4.66787 29.8817 4.9297 30.6233 5.45334 31.1795C5.97698 31.7203 6.60534 31.9907 7.33844 31.9907C8.0865 31.9907 8.69991 31.7203 9.17867 31.1795C9.65742 30.6233 9.8968 29.8817 9.8968 28.9547V19.4296H14.5647V28.9547C14.5647 30.3761 14.2654 31.6199 13.667 32.6859C13.0835 33.7366 12.2457 34.5554 11.1535 35.1425C10.0763 35.7142 8.80463 36 7.33844 36C5.85729 36 4.56315 35.7142 3.45603 35.1425C2.36387 34.5554 1.51108 33.7366 0.89767 32.6859C0.299224 31.6199 0 30.3761 0 28.9547V19.4296H4.66787V28.9547Z" fill="#1C3FC9"/>
<path d="M16.9685 19.4296H20.9406L28.8626 30.183L27.6283 30.6233V19.4296H31.8922V35.6756H27.92L20.0205 24.9686L21.2548 24.5282V35.6756H16.9685V19.4296Z" fill="#1C3FC9"/>
<path d="M34.5449 19.4296H39.2128V31.643H45.8106V35.6756H34.5449V19.4296Z" fill="#1C3FC9"/>
<path d="M47.4314 19.4296H60.2904V23.1377H52.0992V25.687H59.5274V29.395H52.0992V31.9675H60.5149V35.6756H47.4314V19.4296Z" fill="#1C3FC9"/>
<path d="M67.9569 19.4296H72.7594L79.2451 35.6756H74.263L70.2235 24.2501L66.0494 35.6756H61.2468L67.9569 19.4296ZM65.5332 29.5573H74.6221V33.0799H65.5332V29.5573Z" fill="#1C3FC9"/>
<path d="M91.6813 24.6673C91.1427 24.3428 90.5518 24.0415 89.9084 23.7634C89.2651 23.4853 88.6367 23.2613 88.0233 23.0913C87.4249 22.9214 86.9012 22.8364 86.4524 22.8364C86.0634 22.8364 85.7492 22.9137 85.5098 23.0682C85.2705 23.2227 85.1508 23.4622 85.1508 23.7866C85.1508 24.142 85.2929 24.4355 85.5772 24.6673C85.8764 24.8836 86.2729 25.069 86.7666 25.2235C87.2603 25.378 87.7989 25.5402 88.3824 25.7102C88.9659 25.8647 89.5494 26.0655 90.1328 26.3127C90.7163 26.5445 91.2475 26.8458 91.7262 27.2166C92.2199 27.5719 92.6164 28.0431 92.9156 28.6303C93.2148 29.2019 93.3644 29.9126 93.3644 30.7624C93.3644 31.9366 93.0652 32.91 92.4668 33.6825C91.8833 34.4395 91.0978 35.0112 90.1104 35.3975C89.1379 35.7683 88.0607 35.9537 86.8788 35.9537C85.9811 35.9537 85.076 35.8455 84.1633 35.6292C83.2507 35.4129 82.3755 35.1116 81.5377 34.7254C80.7148 34.3391 79.9742 33.8679 79.3159 33.3117L81.0664 29.65C81.605 30.1289 82.2259 30.5615 82.929 30.9478C83.6472 31.3186 84.3578 31.6199 85.061 31.8516C85.7792 32.0679 86.4 32.1761 86.9237 32.1761C87.4323 32.1761 87.8288 32.0834 88.1131 31.898C88.3973 31.6971 88.5395 31.4036 88.5395 31.0173C88.5395 30.662 88.3899 30.3761 88.0906 30.1598C87.7914 29.9281 87.3949 29.7349 86.9012 29.5804C86.4225 29.4259 85.8839 29.2714 85.2854 29.1169C84.7019 28.9624 84.1185 28.777 83.535 28.5607C82.9665 28.329 82.4353 28.0354 81.9416 27.6801C81.4479 27.3247 81.0514 26.8689 80.7522 26.3127C80.4679 25.7565 80.3258 25.0613 80.3258 24.2269C80.3258 23.1763 80.5951 22.2648 81.1337 21.4922C81.6723 20.7043 82.4279 20.1017 83.4003 19.6846C84.3728 19.2674 85.5173 19.0588 86.8339 19.0588C88.0308 19.0588 89.2127 19.2365 90.3797 19.5919C91.5467 19.9318 92.5565 20.3876 93.4093 20.9592L91.6813 24.6673Z" fill="#1C3FC9"/>
<path d="M95.0764 19.4296H99.7442V25.9187H105.332V19.4296H110V35.6756H105.332V29.6268H99.7442V35.6756H95.0764V19.4296Z" fill="#1C3FC9"/>
</g>
<defs>
<clipPath id="clip0_1865_7923">
<rect width="110" height="36" fill="white"/>
</clipPath>
</defs>
</svg>
