<svg width="50" height="50" viewBox="0 0 50 50" fill="none" xmlns="http://www.w3.org/2000/svg">
<path d="M8.33333 2.08337H41.6667C42.2192 2.08337 42.7491 2.30287 43.1398 2.69357C43.5305 3.08427 43.75 3.61417 43.75 4.16671V12.5C43.75 13.0526 43.5305 13.5825 43.1398 13.9732C42.7491 14.3639 42.2192 14.5834 41.6667 14.5834H8.33333C7.7808 14.5834 7.25089 14.3639 6.86019 13.9732C6.46949 13.5825 6.25 13.0526 6.25 12.5V4.16671C6.25 3.61417 6.46949 3.08427 6.86019 2.69357C7.25089 2.30287 7.7808 2.08337 8.33333 2.08337ZM8.33333 18.75H41.6667C42.2192 18.75 42.7491 18.9695 43.1398 19.3602C43.5305 19.7509 43.75 20.2808 43.75 20.8334V29.1667C43.75 29.7192 43.5305 30.2491 43.1398 30.6398C42.7491 31.0305 42.2192 31.25 41.6667 31.25H8.33333C7.7808 31.25 7.25089 31.0305 6.86019 30.6398C6.46949 30.2491 6.25 29.7192 6.25 29.1667V20.8334C6.25 20.2808 6.46949 19.7509 6.86019 19.3602C7.25089 18.9695 7.7808 18.75 8.33333 18.75ZM8.33333 35.4167H41.6667C42.2192 35.4167 42.7491 35.6362 43.1398 36.0269C43.5305 36.4176 43.75 36.9475 43.75 37.5V45.8334C43.75 46.3859 43.5305 46.9158 43.1398 47.3065C42.7491 47.6972 42.2192 47.9167 41.6667 47.9167H8.33333C7.7808 47.9167 7.25089 47.6972 6.86019 47.3065C6.46949 46.9158 6.25 46.3859 6.25 45.8334V37.5C6.25 36.9475 6.46949 36.4176 6.86019 36.0269C7.25089 35.6362 7.7808 35.4167 8.33333 35.4167ZM18.75 10.4167H20.8333V6.25004H18.75V10.4167ZM18.75 27.0834H20.8333V22.9167H18.75V27.0834ZM18.75 43.75H20.8333V39.5834H18.75V43.75ZM10.4167 6.25004V10.4167H14.5833V6.25004H10.4167ZM10.4167 22.9167V27.0834H14.5833V22.9167H10.4167ZM10.4167 39.5834V43.75H14.5833V39.5834H10.4167Z" fill="#F8F8F8"/>
</svg>
