<svg width="50" height="50" viewBox="0 0 50 50" fill="none" xmlns="http://www.w3.org/2000/svg">
<path d="M35.4166 37.5001C36.5217 37.5001 37.5815 37.9391 38.3629 38.7205C39.1443 39.5019 39.5833 40.5617 39.5833 41.6667C39.5833 42.7718 39.1443 43.8316 38.3629 44.613C37.5815 45.3944 36.5217 45.8334 35.4166 45.8334C34.3116 45.8334 33.2518 45.3944 32.4704 44.613C31.689 43.8316 31.25 42.7718 31.25 41.6667C31.25 39.3542 33.1041 37.5001 35.4166 37.5001ZM2.08331 4.16675H8.89581L10.8541 8.33341H41.6666C42.2192 8.33341 42.7491 8.55291 43.1398 8.94361C43.5305 9.33431 43.75 9.86421 43.75 10.4167C43.75 10.7709 43.6458 11.1251 43.5 11.4584L36.0416 24.9376C35.3333 26.2084 33.9583 27.0834 32.3958 27.0834H16.875L15 30.4792L14.9375 30.7292C14.9375 30.8674 14.9924 30.9999 15.09 31.0975C15.1877 31.1952 15.3202 31.2501 15.4583 31.2501H39.5833V35.4167H14.5833C13.4782 35.4167 12.4184 34.9778 11.637 34.1964C10.8556 33.415 10.4166 32.3551 10.4166 31.2501C10.4166 30.5209 10.6041 29.8334 10.9166 29.2501L13.75 24.1459L6.24998 8.33341H2.08331V4.16675ZM14.5833 37.5001C15.6884 37.5001 16.7482 37.9391 17.5296 38.7205C18.311 39.5019 18.75 40.5617 18.75 41.6667C18.75 42.7718 18.311 43.8316 17.5296 44.613C16.7482 45.3944 15.6884 45.8334 14.5833 45.8334C13.4782 45.8334 12.4184 45.3944 11.637 44.613C10.8556 43.8316 10.4166 42.7718 10.4166 41.6667C10.4166 39.3542 12.2708 37.5001 14.5833 37.5001ZM33.3333 22.9167L39.125 12.5001H12.7916L17.7083 22.9167H33.3333Z" fill="#F8F8F8"/>
</svg>
