<svg width="50" height="50" viewBox="0 0 50 50" fill="none" xmlns="http://www.w3.org/2000/svg">
<g clip-path="url(#clip0_97_197)">
<path d="M44.5312 6.56254C43.994 6.21498 43.3796 6.00472 42.7421 5.95023C42.1046 5.89574 41.4634 5.99869 40.875 6.25004L21.5938 13.8438C21.1373 14.0296 20.6491 14.1251 20.1562 14.125H7.8125C6.7765 14.125 5.78293 14.5366 5.05036 15.2692C4.3178 16.0017 3.90625 16.9953 3.90625 18.0313V18.3438H0V27.7188H3.90625V28.125C3.93073 29.1447 4.35306 30.1144 5.08299 30.8268C5.81292 31.5392 6.79254 31.9378 7.8125 31.9375L12.5 41.875C12.8174 42.5442 13.3171 43.1103 13.9418 43.5083C14.5664 43.9063 15.2906 44.1201 16.0312 44.125H18C19.0306 44.1168 20.0161 43.7016 20.742 42.9699C21.4678 42.2383 21.875 41.2494 21.875 40.2188V32.3125L40.875 39.9063C41.3423 40.0923 41.8408 40.1877 42.3438 40.1875C43.1241 40.1749 43.884 39.9361 44.5312 39.5C45.0452 39.153 45.4692 38.6886 45.7681 38.1451C46.067 37.6017 46.2322 36.995 46.25 36.375V9.78129C46.2471 9.1454 46.0891 8.51982 45.7896 7.95889C45.49 7.39796 45.0581 6.91863 44.5312 6.56254ZM17.9688 18.0313V28.125H7.8125V18.0313H17.9688ZM17.9688 40.2188H16L12.1562 31.9375H17.9688V40.2188ZM23.0312 28.5938C22.6602 28.4042 22.2733 28.2473 21.875 28.125V17.8125C22.2695 17.7311 22.6563 17.6161 23.0312 17.4688L42.3438 9.78129V36.2813L23.0312 28.5938ZM46.3438 19.125V26.9375C47.3798 26.9375 48.3733 26.526 49.1059 25.7934C49.8385 25.0609 50.25 24.0673 50.25 23.0313C50.25 21.9953 49.8385 21.0017 49.1059 20.2692C48.3733 19.5366 47.3798 19.125 46.3438 19.125Z" fill="#F8F8F8"/>
</g>
<defs>
<clipPath id="clip0_97_197">
<rect width="50" height="50" fill="white"/>
</clipPath>
</defs>
</svg>
