<svg width="50" height="50" viewBox="0 0 50 50" fill="none" xmlns="http://www.w3.org/2000/svg">
<path fill-rule="evenodd" clip-rule="evenodd" d="M29.1667 14.5833C28.6141 14.5833 28.0842 14.8027 27.6935 15.1934C27.3028 15.5841 27.0833 16.1141 27.0833 16.6666V33.3333C27.0833 33.8858 27.3028 34.4157 27.6935 34.8064C28.0842 35.1971 28.6141 35.4166 29.1667 35.4166H37.5C38.0525 35.4166 38.5824 35.1971 38.9732 34.8064C39.3639 34.4157 39.5833 33.8858 39.5833 33.3333V16.6666C39.5833 16.1141 39.3639 15.5841 38.9732 15.1934C38.5824 14.8027 38.0525 14.5833 37.5 14.5833H29.1667ZM35.4167 18.7499H31.25V31.2499H35.4167V18.7499Z" fill="#F8F8F8"/>
<path d="M12.5 14.5833C11.9475 14.5833 11.4176 14.8027 11.0269 15.1934C10.6362 15.5841 10.4167 16.1141 10.4167 16.6666C10.4167 17.2191 10.6362 17.749 11.0269 18.1397C11.4176 18.5304 11.9475 18.7499 12.5 18.7499H20.8334C21.3859 18.7499 21.9158 18.5304 22.3065 18.1397C22.6972 17.749 22.9167 17.2191 22.9167 16.6666C22.9167 16.1141 22.6972 15.5841 22.3065 15.1934C21.9158 14.8027 21.3859 14.5833 20.8334 14.5833H12.5ZM12.5 22.9166C11.9475 22.9166 11.4176 23.1361 11.0269 23.5268C10.6362 23.9175 10.4167 24.4474 10.4167 24.9999C10.4167 25.5525 10.6362 26.0824 11.0269 26.4731C11.4176 26.8638 11.9475 27.0833 12.5 27.0833H20.8334C21.3859 27.0833 21.9158 26.8638 22.3065 26.4731C22.6972 26.0824 22.9167 25.5525 22.9167 24.9999C22.9167 24.4474 22.6972 23.9175 22.3065 23.5268C21.9158 23.1361 21.3859 22.9166 20.8334 22.9166H12.5ZM10.4167 33.3333C10.4167 32.7807 10.6362 32.2508 11.0269 31.8601C11.4176 31.4694 11.9475 31.2499 12.5 31.2499H20.8334C21.3859 31.2499 21.9158 31.4694 22.3065 31.8601C22.6972 32.2508 22.9167 32.7807 22.9167 33.3333C22.9167 33.8858 22.6972 34.4157 22.3065 34.8064C21.9158 35.1971 21.3859 35.4166 20.8334 35.4166H12.5C11.9475 35.4166 11.4176 35.1971 11.0269 34.8064C10.6362 34.4157 10.4167 33.8858 10.4167 33.3333Z" fill="#F8F8F8"/>
<path fill-rule="evenodd" clip-rule="evenodd" d="M8.33334 6.25C6.67574 6.25 5.08603 6.90848 3.91393 8.08058C2.74182 9.25269 2.08334 10.8424 2.08334 12.5V37.5C2.08334 39.1576 2.74182 40.7473 3.91393 41.9194C5.08603 43.0915 6.67574 43.75 8.33334 43.75H41.6667C43.3243 43.75 44.914 43.0915 46.0861 41.9194C47.2582 40.7473 47.9167 39.1576 47.9167 37.5V12.5C47.9167 10.8424 47.2582 9.25269 46.0861 8.08058C44.914 6.90848 43.3243 6.25 41.6667 6.25H8.33334ZM41.6667 10.4167H8.33334C7.78081 10.4167 7.25091 10.6362 6.8602 11.0269C6.4695 11.4176 6.25001 11.9475 6.25001 12.5V37.5C6.25001 38.0525 6.4695 38.5824 6.8602 38.9731C7.25091 39.3638 7.78081 39.5833 8.33334 39.5833H41.6667C42.2192 39.5833 42.7491 39.3638 43.1398 38.9731C43.5305 38.5824 43.75 38.0525 43.75 37.5V12.5C43.75 11.9475 43.5305 11.4176 43.1398 11.0269C42.7491 10.6362 42.2192 10.4167 41.6667 10.4167Z" fill="#F8F8F8"/>
</svg>
