<svg width="50" height="50" viewBox="0 0 50 50" fill="none" xmlns="http://www.w3.org/2000/svg">
<path d="M30.5104 5.05838C29.4163 4.73726 28.2926 4.52786 27.1563 4.43338C24.6421 4.13769 22.0944 4.33584 19.6563 5.01671L19.5104 5.05838C15.1392 6.25869 11.2833 8.86179 8.53583 12.4673C5.78836 16.0729 4.30147 20.4812 4.30384 25.0142C4.3062 29.5473 5.7977 33.954 8.54893 37.5567C11.3002 41.1594 15.1588 43.7585 19.5313 44.9542C21.1319 45.4051 22.785 45.6433 24.4479 45.6625C24.6334 45.6964 24.822 45.7103 25.0104 45.7042C26.8626 45.7078 28.7065 45.4554 30.4896 44.9542C34.8583 43.7543 38.7125 41.1536 41.4602 37.5514C44.2079 33.9493 45.6973 29.5448 45.6996 25.0142C45.702 20.4837 44.2172 16.0776 41.4733 12.4726C38.7293 8.86755 34.8779 6.26282 30.5104 5.05838ZM29.9479 7.05838C32.6453 7.80507 35.1398 9.14987 37.2461 10.9929C39.3524 12.8359 41.0164 15.1298 42.1146 17.7042H33.2396C32.1803 13.6141 30.2311 9.80826 27.5313 6.55838C28.3477 6.66695 29.1554 6.83405 29.9479 7.05838ZM25.0104 6.87088C27.8566 9.95384 29.9339 13.6658 31.0729 17.7042H18.9062C20.0404 13.6561 22.1343 9.94129 25.0104 6.87504V6.87088ZM31.5938 19.7875C32.2604 23.2348 32.2604 26.7778 31.5938 30.225H18.4271C18.0745 28.5115 17.8999 26.7661 17.9063 25.0167C17.901 23.2605 18.0755 21.5083 18.4271 19.7875H31.5938ZM19.9271 7.10004L20.0729 7.05838C20.8673 6.84672 21.6745 6.68667 22.4896 6.57921C19.7751 9.81613 17.8177 13.6184 16.7604 17.7084H7.91667C9.0104 15.1626 10.6548 12.8908 12.7315 11.0565C14.8082 9.22222 17.2657 7.871 19.9271 7.10004ZM6.38542 25.0167C6.38576 23.2454 6.64546 21.4836 7.15625 19.7875H16.3021C15.9849 21.5126 15.8245 23.2628 15.8229 25.0167C15.8236 26.7638 15.9839 28.5072 16.3021 30.225H7.15625C6.64396 28.5364 6.3842 26.7813 6.38542 25.0167ZM20.0729 42.9542C17.3727 42.2135 14.8754 40.8709 12.7682 39.0271C10.6611 37.1834 8.99883 34.8863 7.90625 32.3084H16.7396C17.8079 36.4075 19.7796 40.2158 22.5104 43.4542C21.6867 43.3478 20.872 43.1806 20.0729 42.9542ZM18.9062 32.3084H31.0729C29.9475 36.3585 27.8687 40.0803 25.0104 43.1625C22.1522 40.0736 20.0611 36.3553 18.9062 32.3084ZM29.9479 42.9542C29.1446 43.1628 28.331 43.3297 27.5104 43.4542C30.2165 40.2054 32.1727 36.3997 33.2396 32.3084H42.1146C41.0189 34.8843 39.3557 37.1796 37.249 39.023C35.1423 40.8663 32.6465 42.2102 29.9479 42.9542ZM33.6979 30.225C34.3437 26.7758 34.3437 23.2367 33.6979 19.7875H42.8438C43.3646 21.4814 43.6245 23.2446 43.6146 25.0167C43.6197 26.7801 43.367 28.5347 42.8646 30.225H33.6979Z" fill="#F8F8F8"/>
</svg>
