<svg width="51" height="51" viewBox="0 0 51 51" fill="none" xmlns="http://www.w3.org/2000/svg">
<path fill-rule="evenodd" clip-rule="evenodd" d="M45.3541 24.3959C45.6467 24.6888 45.8111 25.086 45.8111 25.5C45.8111 25.9141 45.6467 26.3112 45.3541 26.6042L29.7291 42.2292C29.5861 42.3827 29.4136 42.5058 29.2219 42.5912C29.0303 42.6766 28.8234 42.7226 28.6136 42.7263C28.4038 42.73 28.1954 42.6914 28.0008 42.6128C27.8063 42.5342 27.6295 42.4172 27.4811 42.2689C27.3328 42.1205 27.2158 41.9438 27.1372 41.7492C27.0586 41.5546 27.02 41.3462 27.0237 41.1364C27.0274 40.9266 27.0734 40.7197 27.1588 40.5281C27.2442 40.3364 27.3673 40.1639 27.5208 40.0209L40.4791 27.0625L6.74997 27.0625C6.33557 27.0625 5.93814 26.8979 5.64512 26.6049C5.35209 26.3119 5.18747 25.9144 5.18747 25.5C5.18747 25.0856 5.35209 24.6882 5.64512 24.3952C5.93814 24.1022 6.33557 23.9375 6.74997 23.9375L40.4791 23.9375L27.5208 10.9792C27.3673 10.8362 27.2442 10.6637 27.1588 10.472C27.0734 10.2803 27.0274 10.0734 27.0237 9.86362C27.02 9.65383 27.0586 9.44543 27.1372 9.25087C27.2158 9.05631 27.3328 8.87958 27.4811 8.7312C27.6295 8.58283 27.8063 8.46586 28.0008 8.38728C28.1954 8.30869 28.4038 8.2701 28.6136 8.2738C28.8234 8.2775 29.0303 8.32342 29.2219 8.40882C29.4136 8.49422 29.5861 8.61735 29.7291 8.77087L45.3541 24.3959Z" fill="#F8F8F8"/>
</svg>
